<svg width="25" height="26" viewBox="0 0 25 26" fill="none" xmlns="http://www.w3.org/2000/svg">
<g id="ic:baseline-lock-reset">
<path id="Vector" d="M13.543 3.625C11.0566 3.625 8.672 4.61272 6.91384 6.37087C5.15569 8.12903 4.16797 10.5136 4.16797 13H1.04297L5.20964 17.1667L9.3763 13H6.2513C6.2513 8.97917 9.52213 5.70833 13.543 5.70833C17.5638 5.70833 20.8346 8.97917 20.8346 13C20.8346 17.0208 17.5638 20.2917 13.543 20.2917C11.5638 20.2917 9.77213 19.5 8.45963 18.2188L6.98047 19.6875C8.73058 21.4097 11.0876 22.375 13.543 22.375C16.0294 22.375 18.4139 21.3873 20.1721 19.6291C21.9302 17.871 22.918 15.4864 22.918 13C22.918 10.5136 21.9302 8.12903 20.1721 6.37087C18.4139 4.61272 16.0294 3.625 13.543 3.625ZM15.6263 11.9583V10.9167C15.6263 9.77083 14.6888 8.83333 13.543 8.83333C12.3971 8.83333 11.4596 9.77083 11.4596 10.9167V11.9583C10.8867 11.9583 10.418 12.4271 10.418 13V16.125C10.418 16.6979 10.8867 17.1667 11.4596 17.1667H15.6263C16.1992 17.1667 16.668 16.6979 16.668 16.125V13C16.668 12.4271 16.1992 11.9583 15.6263 11.9583ZM14.5846 11.9583H12.5013V10.9167C12.5013 10.3437 12.9701 9.875 13.543 9.875C14.1159 9.875 14.5846 10.3437 14.5846 10.9167V11.9583Z" fill="black"/>
</g>
</svg>
