<svg width="36" height="37" viewBox="0 0 36 37" fill="none" xmlns="http://www.w3.org/2000/svg">
<path d="M5.25001 20C5.24684 16.8059 6.44266 13.727 8.60088 11.3723C10.7591 9.01766 13.7225 7.55884 16.9048 7.28447C20.0871 7.01011 23.2565 7.94017 25.7859 9.89067C28.3153 11.8412 30.0204 14.67 30.564 17.8175C31.191 18.2157 31.7264 18.7423 32.135 19.3626C32.5435 19.9829 32.8158 20.6827 32.934 21.416C32.979 20.9495 33 20.477 33 20C33 11.7155 26.2845 5 18 5C9.71551 5 3.00001 11.7155 3.00001 20C2.99767 21.968 3.38375 23.9172 4.13613 25.7357C4.88851 27.5542 5.9924 29.2064 7.38451 30.5975C7.59659 30.8025 7.88072 30.9161 8.17569 30.9136C8.47066 30.9112 8.75288 30.793 8.96157 30.5845C9.17025 30.3761 9.2887 30.0939 9.2914 29.799C9.2941 29.504 9.18084 29.2198 8.97601 29.0075C7.79262 27.8253 6.85431 26.421 6.21491 24.8753C5.57551 23.3295 5.2476 21.6728 5.25001 20ZM27.285 17.021C26.8335 15.6166 26.0691 14.333 25.0496 13.2669C24.0301 12.2007 22.7819 11.3798 21.3991 10.866C20.0163 10.3522 18.535 10.1588 17.0666 10.3005C15.5982 10.4421 14.1812 10.9152 12.9221 11.6839C11.6631 12.4526 10.5949 13.497 9.79801 14.7385C9.00112 15.9799 8.49631 17.3859 8.32161 18.8507C8.1469 20.3155 8.30686 21.8008 8.78942 23.1949C9.27199 24.5889 10.0646 25.8552 11.1075 26.8985C11.2121 27.003 11.3363 27.0859 11.4729 27.1424C11.6095 27.1989 11.7559 27.228 11.9038 27.2279C12.0516 27.2278 12.198 27.1986 12.3346 27.142C12.4712 27.0853 12.5953 27.0023 12.6998 26.8977C12.8043 26.7932 12.8871 26.669 12.9437 26.5324C13.0002 26.3957 13.0292 26.2493 13.0292 26.1015C13.0291 25.9536 12.9999 25.8072 12.9432 25.6707C12.8866 25.5341 12.8036 25.41 12.699 25.3055C11.897 24.5034 11.2873 23.5299 10.9159 22.4582C10.5445 21.3865 10.421 20.2444 10.5547 19.1181C10.6884 17.9917 11.0759 16.9104 11.6879 15.9554C12.2999 15.0004 13.1206 14.1967 14.0881 13.6047C15.0557 13.0128 16.1449 12.648 17.2737 12.5378C18.4026 12.4276 19.5418 12.5749 20.6056 12.9685C21.6693 13.3622 22.6299 13.9921 23.4151 14.8107C24.2002 15.6293 24.7895 16.6153 25.1385 17.6945C25.7968 17.3158 26.5299 17.0854 27.2865 17.0195L27.285 17.021ZM14.25 20C14.25 19.0054 14.6451 18.0516 15.3484 17.3483C16.0516 16.6451 17.0054 16.25 18 16.25C18.9946 16.25 19.9484 16.6451 20.6517 17.3483C21.3549 18.0516 21.75 19.0054 21.75 20C21.75 20.9946 21.3549 21.9484 20.6517 22.6516C19.9484 23.3549 18.9946 23.75 18 23.75C17.0054 23.75 16.0516 23.3549 15.3484 22.6516C14.6451 21.9484 14.25 20.9946 14.25 20ZM18 18.5C17.6022 18.5 17.2207 18.658 16.9394 18.9393C16.658 19.2206 16.5 19.6022 16.5 20C16.5 20.3978 16.658 20.7794 16.9394 21.0607C17.2207 21.342 17.6022 21.5 18 21.5C18.3978 21.5 18.7794 21.342 19.0607 21.0607C19.342 20.7794 19.5 20.3978 19.5 20C19.5 19.6022 19.342 19.2206 19.0607 18.9393C18.7794 18.658 18.3978 18.5 18 18.5ZM31.5 22.25C31.5 23.2446 31.1049 24.1984 30.4017 24.9016C29.6984 25.6049 28.7446 26 27.75 26C26.7554 26 25.8016 25.6049 25.0984 24.9016C24.3951 24.1984 24 23.2446 24 22.25C24 21.2554 24.3951 20.3016 25.0984 19.5983C25.8016 18.8951 26.7554 18.5 27.75 18.5C28.7446 18.5 29.6984 18.8951 30.4017 19.5983C31.1049 20.3016 31.5 21.2554 31.5 22.25ZM34.5 30.3125C34.5 32.6465 32.571 35 27.75 35C22.929 35 21 32.6555 21 30.3125V30.158C21 28.688 22.191 27.5 23.6595 27.5H31.8405C33.3105 27.5 34.5 28.6895 34.5 30.158V30.3125Z" fill="white"/>
</svg>
