<svg width="25" height="26" viewBox="0 0 25 26" fill="none" xmlns="http://www.w3.org/2000/svg">
<g id="maki:cross">
<path id="Vector" d="M6.06661 4.28301L12.4999 10.7163L18.8999 4.31634C19.0413 4.16587 19.2116 4.0455 19.4006 3.96244C19.5897 3.87939 19.7935 3.83537 19.9999 3.83301C20.442 3.83301 20.8659 4.0086 21.1785 4.32116C21.491 4.63372 21.6666 5.05765 21.6666 5.49967C21.6705 5.70401 21.6326 5.90699 21.5552 6.09614C21.4778 6.2853 21.3626 6.45665 21.2166 6.59967L14.7333 12.9997L21.2166 19.483C21.4913 19.7517 21.6524 20.1157 21.6666 20.4997C21.6666 20.9417 21.491 21.3656 21.1785 21.6782C20.8659 21.9907 20.442 22.1663 19.9999 22.1663C19.7875 22.1752 19.5756 22.1397 19.3776 22.0622C19.1797 21.9848 19 21.867 18.8499 21.7163L12.4999 15.283L6.08328 21.6997C5.94246 21.8451 5.77422 21.9613 5.58828 22.0413C5.40234 22.1214 5.20239 22.1639 4.99995 22.1663C4.55792 22.1663 4.13399 21.9907 3.82143 21.6782C3.50887 21.3656 3.33328 20.9417 3.33328 20.4997C3.32939 20.2953 3.3673 20.0924 3.44469 19.9032C3.52207 19.714 3.63729 19.5427 3.78328 19.3997L10.2666 12.9997L3.78328 6.51634C3.50859 6.24761 3.34751 5.88369 3.33328 5.49967C3.33328 5.05765 3.50887 4.63372 3.82143 4.32116C4.13399 4.0086 4.55792 3.83301 4.99995 3.83301C5.39995 3.83801 5.78328 3.99967 6.06661 4.28301Z" fill="#FF0D0D"/>
</g>
</svg>
