<svg width="36" height="37" viewBox="0 0 36 37" fill="none" xmlns="http://www.w3.org/2000/svg">
<g id="Group">
<path id="Vector" d="M30 21.5C30.5778 21.5002 31.1334 21.7228 31.5516 22.1216C31.9698 22.5203 32.2185 23.0647 32.2463 23.6418C32.274 24.219 32.0787 24.7847 31.7007 25.2218C31.3227 25.6588 30.7911 25.9337 30.216 25.9895L30 26H11.4315L13.5915 28.16C14.0006 28.5676 14.2373 29.117 14.2526 29.6944C14.2678 30.2718 14.0605 30.8329 13.6734 31.2616C13.2863 31.6903 12.7492 31.9538 12.1733 31.9974C11.5974 32.041 11.0267 31.8615 10.5795 31.496L10.4085 31.3415L4.66499 25.5965C3.20399 24.1355 4.15499 21.671 6.15149 21.509L6.36149 21.5H30ZM22.41 5.65996C22.8035 5.26606 23.3292 5.03208 23.8853 5.00326C24.4413 4.97445 24.9883 5.15285 25.4205 5.50396L25.5915 5.65846L31.335 11.4035C32.796 12.8645 31.845 15.329 29.8485 15.491L29.6385 15.5H5.99999C5.42216 15.4997 4.86659 15.2771 4.44841 14.8784C4.03022 14.4796 3.78147 13.9352 3.7537 13.3581C3.72593 12.7809 3.92127 12.2152 4.29925 11.7782C4.67723 11.3411 5.20886 11.0662 5.78399 11.0105L5.99999 11H24.5685L22.4085 8.83996C21.9871 8.41809 21.7505 7.84622 21.7505 7.24996C21.7505 6.65371 21.9886 6.08184 22.41 5.65996Z" fill="black"/>
</g>
</svg>
