<svg width="36" height="37" viewBox="0 0 36 37" fill="none" xmlns="http://www.w3.org/2000/svg">
<path d="M15 3.5H21C21.7956 3.5 22.5587 3.81607 23.1213 4.37868C23.6839 4.94129 24 5.70435 24 6.5V9.5H30C30.7956 9.5 31.5587 9.81607 32.1213 10.3787C32.6839 10.9413 33 11.7044 33 12.5V20.795C31.3527 19.3143 29.215 18.4966 27 18.5C25.4206 18.5013 23.8692 18.9178 22.5016 19.7079C21.1339 20.4979 19.9981 21.6337 19.2079 23.0012C18.4178 24.3688 18.0011 25.9201 17.9997 27.4996C17.9983 29.079 18.4123 30.631 19.2 32H6C5.20435 32 4.44129 31.6839 3.87868 31.1213C3.31607 30.5587 3 29.7956 3 29V12.5C3 10.835 4.335 9.5 6 9.5H12V6.5C12 4.835 13.335 3.5 15 3.5ZM21 9.5V6.5H15V9.5H21ZM28.5 28.25V26H22.5V23H28.5V20.75L33 24.5L28.5 28.25ZM25.5 29H31.5V32H25.5V34.25L21 30.5L25.5 26.75V29Z" fill="white"/>
</svg>
