<svg width="45" height="37" viewBox="0 0 45 37" fill="none" xmlns="http://www.w3.org/2000/svg">
<g id="fa6-solid:money-bill-transfer" clip-path="url(#clip0_28_251)">
<path id="Vector" d="M37.6172 3.38277C36.9562 2.72183 36.9562 1.65308 37.6172 0.999173C38.2781 0.345267 39.3469 0.338236 40.0008 0.999173L44.5008 5.49917C44.8172 5.81558 44.993 6.24449 44.993 6.69449C44.993 7.14449 44.8172 7.57339 44.5008 7.8898L40.0008 12.3898C39.3398 13.0507 38.2711 13.0507 37.6172 12.3898C36.9633 11.7289 36.9562 10.6601 37.6172 10.0062L39.2344 8.38902L27 8.37495C26.0648 8.37495 25.3125 7.62261 25.3125 6.68745C25.3125 5.7523 26.0648 4.99995 27 4.99995H39.2414L37.6172 3.38277ZM7.38281 27.0078L5.76562 28.625H18C18.9352 28.625 19.6875 29.3773 19.6875 30.3125C19.6875 31.2476 18.9352 32 18 32H5.75859L7.37578 33.6171C8.03672 34.2781 8.03672 35.3468 7.37578 36.0007C6.71484 36.6546 5.64609 36.6617 4.99219 36.0007L0.492188 31.5078C0.175781 31.1914 0 30.7625 0 30.3125C0 29.8625 0.175781 29.4335 0.492188 29.1171L4.99219 24.6171C5.65312 23.9562 6.72188 23.9562 7.37578 24.6171C8.02969 25.2781 8.03672 26.3468 7.37578 27.0007L7.38281 27.0078ZM6.75 4.99995H23.7586C23.4984 5.5062 23.3438 6.07574 23.3438 6.68745C23.3438 8.70542 24.982 10.3437 27 10.3437H35.2547C34.9734 11.539 35.2969 12.8398 36.225 13.775C37.6523 15.2023 39.9656 15.2023 41.393 13.775L42.75 12.4179V27.5C42.75 29.982 40.732 32 38.25 32H21.2414C21.5016 31.4937 21.6562 30.9242 21.6562 30.3125C21.6562 28.2945 20.018 26.6562 18 26.6562H9.74531C10.0266 25.4609 9.70312 24.1601 8.775 23.225C7.34766 21.7976 5.03437 21.7976 3.60703 23.225L2.25 24.582V9.49996C2.25 7.01792 4.26797 4.99995 6.75 4.99995ZM11.25 9.49996H6.75V14C9.23203 14 11.25 11.982 11.25 9.49996ZM38.25 23C35.768 23 33.75 25.0179 33.75 27.5H38.25V23ZM22.5 25.25C24.2902 25.25 26.0071 24.5388 27.273 23.2729C28.5388 22.0071 29.25 20.2902 29.25 18.5C29.25 16.7097 28.5388 14.9929 27.273 13.727C26.0071 12.4611 24.2902 11.75 22.5 11.75C20.7098 11.75 18.9929 12.4611 17.727 13.727C16.4612 14.9929 15.75 16.7097 15.75 18.5C15.75 20.2902 16.4612 22.0071 17.727 23.2729C18.9929 24.5388 20.7098 25.25 22.5 25.25Z" fill="black"/>
</g>
<defs>
<clipPath id="clip0_28_251">
<rect width="45" height="36" fill="white" transform="translate(0 0.5)"/>
</clipPath>
</defs>
</svg>
