<svg width="36" height="37" viewBox="0 0 36 37" fill="none" xmlns="http://www.w3.org/2000/svg">
<g id="material-symbols:settings-timelapse-outline">
<path id="Vector" d="M27 32V23L34.5 27.5L27 32ZM19.5 32V23L27 27.5L19.5 32ZM13.875 33.5L13.275 28.7C12.95 28.575 12.6435 28.425 12.3555 28.25C12.0675 28.075 11.7865 27.8875 11.5125 27.6875L7.04999 29.5625L2.92499 22.4375L6.78749 19.5125C6.76249 19.3375 6.74999 19.1685 6.74999 19.0055V17.9945C6.74999 17.8315 6.76249 17.6625 6.78749 17.4875L2.92499 14.5625L7.04999 7.4375L11.5125 9.3125C11.7875 9.1125 12.075 8.925 12.375 8.75C12.675 8.575 12.975 8.425 13.275 8.3L13.875 3.5H22.125L22.725 8.3C23.05 8.425 23.3565 8.575 23.6445 8.75C23.9325 8.925 24.2135 9.1125 24.4875 9.3125L28.95 7.4375L33.075 14.5625L29.2125 17.4875C29.2375 17.6625 29.25 17.8315 29.25 17.9945V19.25C29.25 19.5 29.225 19.75 29.175 20H26.1C26.15 19.75 26.1875 19.5 26.2125 19.25C26.2375 19 26.25 18.75 26.25 18.5C26.225 18.025 26.1875 17.606 26.1375 17.243C26.0875 16.88 26.0125 16.5365 25.9125 16.2125L29.1375 13.775L27.675 11.225L23.9625 12.8C23.4125 12.225 22.806 11.7435 22.143 11.3555C21.48 10.9675 20.7615 10.674 19.9875 10.475L19.5 6.5H16.5375L16.0125 10.475C15.2375 10.675 14.519 10.969 13.857 11.357C13.195 11.745 12.5885 12.2135 12.0375 12.7625L8.32499 11.225L6.86249 13.775L10.0875 16.175C9.96249 16.55 9.87499 16.925 9.82499 17.3C9.77499 17.675 9.74999 18.075 9.74999 18.5C9.74999 18.9 9.77499 19.2875 9.82499 19.6625C9.87499 20.0375 9.96249 20.4125 10.0875 20.7875L6.86249 23.225L8.32499 25.775L12.0375 24.2C12.6375 24.825 13.3125 25.35 14.0625 25.775C14.8125 26.2 15.625 26.475 16.5 26.6V33.5H13.875ZM16.5 23.525V20.1125C16.3 19.9125 16.1375 19.675 16.0125 19.4C15.8875 19.125 15.825 18.825 15.825 18.5C15.825 17.875 16.044 17.3435 16.482 16.9055C16.92 16.4675 17.451 16.249 18.075 16.25C18.7 16.25 19.2315 16.469 19.6695 16.907C20.1075 17.345 20.326 17.876 20.325 18.5C20.325 18.775 20.281 19.0435 20.193 19.3055C20.105 19.5675 19.9615 19.799 19.7625 20H23.1C23.175 19.75 23.2315 19.506 23.2695 19.268C23.3075 19.03 23.326 18.774 23.325 18.5C23.325 17.05 22.8125 15.8125 21.7875 14.7875C20.7625 13.7625 19.525 13.25 18.075 13.25C16.6 13.25 15.356 13.7625 14.343 14.7875C13.33 15.8125 12.824 17.05 12.825 18.5C12.825 19.7 13.169 20.75 13.857 21.65C14.545 22.55 15.426 23.175 16.5 23.525Z" fill="white"/>
</g>
</svg>
