<svg width="36" height="37" viewBox="0 0 36 37" fill="none" xmlns="http://www.w3.org/2000/svg">
<g id="carbon:report">
<path id="Vector" d="M11.25 20.75H20.25V23H11.25V20.75ZM11.25 15.125H24.75V17.375H11.25V15.125ZM11.25 26.375H16.875V28.625H11.25V26.375Z" fill="black"/>
<path id="Vector_2" d="M28.125 6.125H24.75V5C24.75 4.40326 24.5129 3.83097 24.091 3.40901C23.669 2.98705 23.0967 2.75 22.5 2.75H13.5C12.9033 2.75 12.331 2.98705 11.909 3.40901C11.4871 3.83097 11.25 4.40326 11.25 5V6.125H7.875C7.27826 6.125 6.70597 6.36205 6.28401 6.78401C5.86205 7.20597 5.625 7.77826 5.625 8.375V32C5.625 32.5967 5.86205 33.169 6.28401 33.591C6.70597 34.0129 7.27826 34.25 7.875 34.25H28.125C28.7217 34.25 29.294 34.0129 29.716 33.591C30.1379 33.169 30.375 32.5967 30.375 32V8.375C30.375 7.77826 30.1379 7.20597 29.716 6.78401C29.294 6.36205 28.7217 6.125 28.125 6.125ZM13.5 5H22.5V9.5H13.5V5ZM28.125 32H7.875V8.375H11.25V11.75H24.75V8.375H28.125V32Z" fill="black"/>
</g>
</svg>
