<svg width="36" height="37" viewBox="0 0 36 37" fill="none" xmlns="http://www.w3.org/2000/svg">
<g id="Group">
<path id="Vector" d="M30 21.5002C30.5778 21.5005 31.1334 21.7231 31.5516 22.1218C31.9698 22.5206 32.2185 23.0649 32.2463 23.6421C32.274 24.2192 32.0787 24.785 31.7007 25.222C31.3227 25.6591 30.7911 25.934 30.216 25.9897L30 26.0002H11.4315L13.5915 28.1602C14.0006 28.5679 14.2373 29.1173 14.2526 29.6947C14.2678 30.2721 14.0605 30.8332 13.6734 31.2619C13.2863 31.6906 12.7492 31.954 12.1733 31.9976C11.5974 32.0413 11.0267 31.8617 10.5795 31.4962L10.4085 31.3417L4.66499 25.5967C3.20399 24.1357 4.15499 21.6712 6.15149 21.5092L6.36149 21.5002H30ZM22.41 5.66021C22.8035 5.2663 23.3292 5.03232 23.8853 5.00351C24.4413 4.97469 24.9883 5.15309 25.4205 5.50421L25.5915 5.65871L31.335 11.4037C32.796 12.8647 31.845 15.3292 29.8485 15.4912L29.6385 15.5002H5.99999C5.42216 15.4999 4.86659 15.2773 4.44841 14.8786C4.03022 14.4798 3.78147 13.9355 3.7537 13.3583C3.72593 12.7812 3.92127 12.2155 4.29925 11.7784C4.67723 11.3414 5.20886 11.0665 5.78399 11.0107L5.99999 11.0002H24.5685L22.4085 8.84021C21.9871 8.41833 21.7505 7.84646 21.7505 7.25021C21.7505 6.65396 21.9886 6.08208 22.41 5.66021Z" fill="white"/>
</g>
</svg>
