<svg width="36" height="37" viewBox="0 0 36 37" fill="none" xmlns="http://www.w3.org/2000/svg">
<g id="fluent:arrow-trending-settings-24-filled">
<path id="Vector" d="M30 5C30.3978 5 30.7794 5.15804 31.0607 5.43934C31.342 5.72064 31.5 6.10218 31.5 6.5V14C31.5 14.3978 31.342 14.7794 31.0607 15.0607C30.7794 15.342 30.3978 15.5 30 15.5C29.6022 15.5 29.2206 15.342 28.9393 15.0607C28.658 14.7794 28.5 14.3978 28.5 14V10.121L19.8105 18.8105C19.5292 19.0917 19.1477 19.2497 18.75 19.2497C18.3523 19.2497 17.9708 19.0917 17.6895 18.8105L15 16.121L7.0605 24.0605C6.7776 24.3337 6.39869 24.4849 6.0054 24.4815C5.6121 24.4781 5.23588 24.3203 4.95777 24.0422C4.67966 23.7641 4.52191 23.3879 4.51849 22.9946C4.51507 22.6013 4.66626 22.2224 4.9395 21.9395L13.9395 12.9395C14.2208 12.6583 14.6023 12.5003 15 12.5003C15.3977 12.5003 15.7792 12.6583 16.0605 12.9395L18.75 15.629L26.379 8H22.5C22.1022 8 21.7206 7.84196 21.4393 7.56066C21.158 7.27936 21 6.89782 21 6.5C21 6.10218 21.158 5.72064 21.4393 5.43934C21.7206 5.15804 22.1022 5 22.5 5H30ZM21.417 21.464C21.5289 21.8517 21.5615 22.258 21.5128 22.6586C21.464 23.0592 21.335 23.4459 21.1333 23.7954C20.9316 24.145 20.6615 24.4502 20.3391 24.6929C20.0167 24.9357 19.6487 25.1108 19.257 25.208L18.3795 25.424C18.2391 26.3223 18.2421 27.2372 18.3885 28.1345L19.1985 28.3295C19.5939 28.4247 19.9658 28.5994 20.2915 28.8428C20.6173 29.0862 20.8902 29.3933 21.0937 29.7454C21.2971 30.0976 21.4268 30.4874 21.4749 30.8912C21.523 31.295 21.4885 31.7044 21.3735 32.0945L21.093 33.0425C21.753 33.6215 22.503 34.091 23.3205 34.4255L24.06 33.6455C24.3403 33.3508 24.6777 33.1162 25.0515 32.956C25.4253 32.7957 25.8278 32.7131 26.2346 32.7133C26.6413 32.7134 27.0438 32.7963 27.4175 32.9568C27.7912 33.1173 28.1284 33.3521 28.4085 33.647L29.157 34.4345C29.9692 34.1042 30.7209 33.6414 31.3815 33.065L31.083 32.036C30.9711 31.6481 30.9386 31.2416 30.9876 30.8408C31.0365 30.4401 31.1658 30.0533 31.3678 29.7037C31.5698 29.3541 31.8402 29.0489 32.1629 28.8063C32.4857 28.5638 32.854 28.3888 33.246 28.292L34.1205 28.076C34.2611 27.1772 34.258 26.2618 34.1115 25.364L33.303 25.169C32.9076 25.0738 32.5358 24.8991 32.21 24.6557C31.8842 24.4123 31.6113 24.1052 31.4078 23.7531C31.2044 23.4009 31.0747 23.0111 31.0266 22.6073C30.9785 22.2035 31.013 21.7941 31.128 21.404L31.407 20.459C30.7469 19.8776 29.9946 19.4102 29.181 19.076L28.4415 19.853C28.1612 20.148 27.8239 20.3829 27.45 20.5434C27.0761 20.704 26.6734 20.7868 26.2665 20.7868C25.8596 20.7868 25.4569 20.704 25.083 20.5434C24.7091 20.3829 24.3718 20.148 24.0915 19.853L23.3445 19.0655C22.5327 19.3958 21.781 19.858 21.12 20.4335L21.417 21.464ZM26.25 29C25.05 29 24.075 27.992 24.075 26.75C24.075 25.508 25.05 24.5 26.25 24.5C27.45 24.5 28.425 25.508 28.425 26.75C28.425 27.992 27.45 29 26.25 29Z" fill="black"/>
</g>
</svg>
