<svg width="36" height="37" viewBox="0 0 36 37" fill="none" xmlns="http://www.w3.org/2000/svg">
<g id="heroicons-outline:speakerphone">
<path id="Vector" d="M16.5 9.323V29.36C16.4996 29.9817 16.2797 30.5833 15.8792 31.0588C15.4787 31.5343 14.9233 31.8532 14.3107 31.9594C13.6981 32.0655 13.0677 31.952 12.5306 31.639C11.9935 31.3259 11.5841 30.8333 11.3745 30.248L8.15401 21.023M8.15401 21.023C6.88084 20.4817 5.83379 19.5186 5.19006 18.294C4.54632 17.0694 4.34545 15.66 4.62142 14.3043C4.89738 12.9487 5.63325 11.73 6.70449 10.8545C7.77572 9.97902 9.11653 9.50053 10.5 9.5H13.248C19.398 9.5 24.6855 7.649 27 5V26C24.6855 23.351 19.3995 21.5 13.248 21.5H10.5C9.69396 21.5012 8.89599 21.3379 8.15401 21.023ZM27 20C28.1935 20 29.3381 19.5259 30.182 18.682C31.0259 17.8381 31.5 16.6935 31.5 15.5C31.5 14.3065 31.0259 13.1619 30.182 12.318C29.3381 11.4741 28.1935 11 27 11" stroke="black" stroke-width="3" stroke-linecap="round" stroke-linejoin="round"/>
</g>
</svg>
