<svg width="36" height="37" viewBox="0 0 36 37" fill="none" xmlns="http://www.w3.org/2000/svg">
<g id="mingcute:exchange-euro-line" clip-path="url(#clip0_28_234)">
<g id="Group">
<path id="Vector" fill-rule="evenodd" clip-rule="evenodd" d="M5.09849 14.2639C4.73654 14.0991 4.45484 13.7974 4.31533 13.425C4.17581 13.0525 4.1899 12.64 4.35449 12.2779C7.33499 5.72292 14.6985 2.08992 21.885 4.01442C25.0555 4.8636 27.8601 6.72909 29.8688 9.32494C31.8776 11.9208 32.9796 15.1037 33.006 18.3859C33.0165 19.7404 31.5135 20.4889 30.4365 19.7629L26.4195 17.0569C24.9105 16.0399 25.9185 13.6864 27.6945 14.0764L29.2905 14.4274C28.48 12.1851 27.0202 10.235 25.097 8.82574C23.1739 7.41645 20.8746 6.61182 18.4923 6.51447C16.1101 6.41711 13.7528 7.03143 11.7211 8.2791C9.68933 9.52677 8.0752 11.3513 7.08449 13.5199C6.91972 13.8819 6.61794 14.1636 6.24553 14.3031C5.87311 14.4426 5.46053 14.4285 5.09849 14.2639ZM30.9075 22.7434C31.2697 22.9079 31.5517 23.2096 31.6916 23.582C31.8314 23.9545 31.8175 24.3672 31.653 24.7294C28.671 31.2844 21.3075 34.9189 14.121 32.9929C10.9503 32.1434 8.14572 30.2777 6.13701 27.6816C4.12829 25.0855 3.02632 21.9023 2.99999 18.6199C2.98949 17.2654 4.49249 16.5169 5.56949 17.2429L9.58649 19.9489C11.0955 20.9659 10.0875 23.3194 8.31149 22.9294L6.71549 22.5784C7.52594 24.8207 8.98581 26.7708 10.909 28.1801C12.8321 29.5894 15.1314 30.394 17.5137 30.4914C19.8959 30.5887 22.2532 29.9744 24.2849 28.7267C26.3167 27.4791 27.9308 25.6546 28.9215 23.4859C29.0863 23.124 29.388 22.8423 29.7605 22.7028C30.1329 22.5632 30.5455 22.5773 30.9075 22.7419V22.7434ZM18.795 13.2499C17.31 13.2499 15.657 14.6404 15.153 16.9999H19.5C19.8978 16.9999 20.2793 17.158 20.5607 17.4393C20.842 17.7206 21 18.1021 21 18.4999C21 18.8977 20.842 19.2793 20.5607 19.5606C20.2793 19.8419 19.8978 19.9999 19.5 19.9999H15.153C15.6555 22.3594 17.31 23.7499 18.795 23.7499C19.695 23.7499 20.5995 23.2939 21.33 22.3849C21.4507 22.2243 21.6024 22.0895 21.7762 21.9886C21.9499 21.8878 22.1422 21.8228 22.3415 21.7977C22.5409 21.7725 22.7432 21.7877 22.9366 21.8422C23.13 21.8968 23.3104 21.9897 23.4672 22.1153C23.624 22.2409 23.754 22.3968 23.8494 22.5736C23.9448 22.7505 24.0037 22.9447 24.0226 23.1447C24.0415 23.3447 24.0201 23.5465 23.9595 23.7381C23.8989 23.9297 23.8005 24.1071 23.67 24.2599C22.4895 25.7344 20.7795 26.7499 18.795 26.7499C15.213 26.7499 12.675 23.6119 12.1155 19.9999H12C11.6022 19.9999 11.2206 19.8419 10.9393 19.5606C10.658 19.2793 10.5 18.8977 10.5 18.4999C10.5 18.1021 10.658 17.7206 10.9393 17.4393C11.2206 17.158 11.6022 16.9999 12 16.9999H12.1155C12.6735 13.3879 15.213 10.2499 18.795 10.2499C20.7795 10.2499 22.4895 11.2654 23.67 12.7399C23.9041 13.0515 24.0077 13.442 23.9589 13.8286C23.9101 14.2153 23.7128 14.5678 23.4087 14.8114C23.1045 15.0551 22.7175 15.1709 22.3295 15.1342C21.9415 15.0975 21.5831 14.9113 21.33 14.6149C20.5995 13.7059 19.695 13.2499 18.795 13.2499Z" fill="black"/>
</g>
</g>
<defs>
<clipPath id="clip0_28_234">
<rect width="36" height="36" fill="white" transform="translate(0 0.5)"/>
</clipPath>
</defs>
</svg>
