<svg width="45" height="37" viewBox="0 0 45 37" fill="none" xmlns="http://www.w3.org/2000/svg">
<g id="fa6-solid:money-bill-transfer" clip-path="url(#clip0_193_545)">
<path id="Vector" d="M37.6172 3.38252C36.9562 2.72159 36.9562 1.65284 37.6172 0.998929C38.2781 0.345023 39.3469 0.337992 40.0008 0.998929L44.5008 5.49893C44.8172 5.81534 44.993 6.24424 44.993 6.69424C44.993 7.14424 44.8172 7.57315 44.5008 7.88955L40.0008 12.3896C39.3398 13.0505 38.2711 13.0505 37.6172 12.3896C36.9633 11.7286 36.9562 10.6599 37.6172 10.006L39.2344 8.38877L27 8.37471C26.0648 8.37471 25.3125 7.62237 25.3125 6.68721C25.3125 5.75205 26.0648 4.99971 27 4.99971H39.2414L37.6172 3.38252ZM7.38281 27.0075L5.76562 28.6247H18C18.9352 28.6247 19.6875 29.3771 19.6875 30.3122C19.6875 31.2474 18.9352 31.9997 18 31.9997H5.75859L7.37578 33.6169C8.03672 34.2778 8.03672 35.3466 7.37578 36.0005C6.71484 36.6544 5.64609 36.6614 4.99219 36.0005L0.492188 31.5075C0.175781 31.1911 0 30.7622 0 30.3122C0 29.8622 0.175781 29.4333 0.492188 29.1169L4.99219 24.6169C5.65312 23.956 6.72188 23.956 7.37578 24.6169C8.02969 25.2778 8.03672 26.3466 7.37578 27.0005L7.38281 27.0075ZM6.75 4.99971H23.7586C23.4984 5.50596 23.3438 6.07549 23.3438 6.68721C23.3438 8.70518 24.982 10.3435 27 10.3435H35.2547C34.9734 11.5388 35.2969 12.8396 36.225 13.7747C37.6523 15.2021 39.9656 15.2021 41.393 13.7747L42.75 12.4177V27.4997C42.75 29.9817 40.732 31.9997 38.25 31.9997H21.2414C21.5016 31.4935 21.6562 30.9239 21.6562 30.3122C21.6562 28.2942 20.018 26.656 18 26.656H9.74531C10.0266 25.4606 9.70312 24.1599 8.775 23.2247C7.34766 21.7974 5.03437 21.7974 3.60703 23.2247L2.25 24.5817V9.49971C2.25 7.01768 4.26797 4.99971 6.75 4.99971ZM11.25 9.49971H6.75V13.9997C9.23203 13.9997 11.25 11.9817 11.25 9.49971ZM38.25 22.9997C35.768 22.9997 33.75 25.0177 33.75 27.4997H38.25V22.9997ZM22.5 25.2497C24.2902 25.2497 26.0071 24.5386 27.273 23.2727C28.5388 22.0068 29.25 20.2899 29.25 18.4997C29.25 16.7095 28.5388 14.9926 27.273 13.7267C26.0071 12.4609 24.2902 11.7497 22.5 11.7497C20.7098 11.7497 18.9929 12.4609 17.727 13.7267C16.4612 14.9926 15.75 16.7095 15.75 18.4997C15.75 20.2899 16.4612 22.0068 17.727 23.2727C18.9929 24.5386 20.7098 25.2497 22.5 25.2497Z" fill="white"/>
</g>
<defs>
<clipPath id="clip0_193_545">
<rect width="45" height="36" fill="white" transform="translate(0 0.5)"/>
</clipPath>
</defs>
</svg>
