<svg width="36" height="37" viewBox="0 0 36 37" fill="none" xmlns="http://www.w3.org/2000/svg">
<g id="lucide:user-plus">
<g id="Group">
<path id="Vector" d="M24 32V29C24 27.4087 23.3679 25.8826 22.2426 24.7574C21.1174 23.6321 19.5913 23 18 23H9C7.4087 23 5.88258 23.6321 4.75736 24.7574C3.63214 25.8826 3 27.4087 3 29V32" stroke="white" stroke-width="3" stroke-linecap="round" stroke-linejoin="round"/>
<path id="Vector_2" d="M13.5 17C16.8137 17 19.5 14.3137 19.5 11C19.5 7.68629 16.8137 5 13.5 5C10.1863 5 7.5 7.68629 7.5 11C7.5 14.3137 10.1863 17 13.5 17Z" stroke="white" stroke-width="3" stroke-linecap="round" stroke-linejoin="round"/>
<path id="Vector_3" d="M28.5 12.5V21.5M33 17H24" stroke="white" stroke-width="3" stroke-linecap="round" stroke-linejoin="round"/>
</g>
</g>
</svg>
