<svg width="36" height="37" viewBox="0 0 36 37" fill="none" xmlns="http://www.w3.org/2000/svg">
<g id="bi:credit-card-2-back" clip-path="url(#clip0_28_255)">
<g id="Group">
<path id="Vector" d="M24.75 12.875C24.75 12.5766 24.8685 12.2905 25.0795 12.0795C25.2905 11.8685 25.5766 11.75 25.875 11.75H30.375C30.6734 11.75 30.9595 11.8685 31.1705 12.0795C31.3815 12.2905 31.5 12.5766 31.5 12.875V15.125C31.5 15.4234 31.3815 15.7095 31.1705 15.9205C30.9595 16.1315 30.6734 16.25 30.375 16.25H25.875C25.5766 16.25 25.2905 16.1315 25.0795 15.9205C24.8685 15.7095 24.75 15.4234 24.75 15.125V12.875Z" fill="black"/>
<path id="Vector_2" d="M4.5 5C3.30653 5 2.16193 5.47411 1.31802 6.31802C0.474106 7.16193 0 8.30653 0 9.5L0 27.5C0 28.6935 0.474106 29.8381 1.31802 30.682C2.16193 31.5259 3.30653 32 4.5 32H31.5C32.6935 32 33.8381 31.5259 34.682 30.682C35.5259 29.8381 36 28.6935 36 27.5V9.5C36 8.30653 35.5259 7.16193 34.682 6.31802C33.8381 5.47411 32.6935 5 31.5 5H4.5ZM33.75 9.5V20.75H2.25V9.5C2.25 8.90326 2.48705 8.33097 2.90901 7.90901C3.33097 7.48705 3.90326 7.25 4.5 7.25H31.5C32.0967 7.25 32.669 7.48705 33.091 7.90901C33.5129 8.33097 33.75 8.90326 33.75 9.5ZM31.5 29.75H4.5C3.90326 29.75 3.33097 29.5129 2.90901 29.091C2.48705 28.669 2.25 28.0967 2.25 27.5V25.25H33.75V27.5C33.75 28.0967 33.5129 28.669 33.091 29.091C32.669 29.5129 32.0967 29.75 31.5 29.75Z" fill="black"/>
</g>
</g>
<defs>
<clipPath id="clip0_28_255">
<rect width="36" height="36" fill="white" transform="translate(0 0.5)"/>
</clipPath>
</defs>
</svg>
