<svg width="36" height="37" viewBox="0 0 36 37" fill="none" xmlns="http://www.w3.org/2000/svg">
<path d="M33.75 2.75V34.25H2.25V2.75H33.75ZM4.5 5V23H7.13672L9.05273 21.084C9.27539 20.8613 9.53906 20.75 9.84375 20.75C10.1484 20.75 10.4121 20.8613 10.6348 21.084L13.7461 24.1777L18.0352 7.53125C18.0938 7.28516 18.2227 7.08594 18.4219 6.93359C18.6211 6.78125 18.8555 6.69922 19.125 6.6875C19.3945 6.6875 19.6289 6.76367 19.8281 6.91602C20.0273 7.06836 20.1562 7.2793 20.2148 7.54883L22.0078 14.8789H24.75C25.0078 14.8789 25.2363 14.9551 25.4355 15.1074C25.6348 15.2598 25.7695 15.4648 25.8398 15.7227L27.1055 20.75H31.5V5H4.5ZM31.5 32V23H26.2266C25.957 23 25.7227 22.9238 25.5234 22.7715C25.3242 22.6191 25.1953 22.4082 25.1367 22.1387L23.8711 17.1289H21.1289C20.8594 17.1289 20.625 17.0527 20.4258 16.9004C20.2266 16.748 20.0977 16.5371 20.0391 16.2676L19.0898 12.4355L15.4336 26.6562C15.375 26.9023 15.2461 27.1016 15.0469 27.2539C14.8477 27.4062 14.6133 27.4883 14.3438 27.5C14.0391 27.5 13.7754 27.3887 13.5527 27.166L9.84375 23.457L8.38477 24.916C8.16211 25.1387 7.89844 25.25 7.59375 25.25H4.5V32H31.5Z" fill="white"/>
</svg>
