<svg width="25" height="26" viewBox="0 0 25 26" fill="none" xmlns="http://www.w3.org/2000/svg">
<g id="material-symbols:add-notes-rounded">
<path id="Vector" d="M18.2292 19.7708V21.8542C18.2292 21.9931 18.2813 22.1146 18.3854 22.2188C18.4896 22.3229 18.6111 22.375 18.75 22.375C18.8889 22.375 19.0104 22.3229 19.1146 22.2188C19.2188 22.1146 19.2708 21.9931 19.2708 21.8542V19.7708H21.3542C21.4931 19.7708 21.6146 19.7188 21.7188 19.6146C21.8229 19.5104 21.875 19.3889 21.875 19.25C21.875 19.1111 21.8229 18.9896 21.7188 18.8854C21.6146 18.7813 21.4931 18.7292 21.3542 18.7292H19.2708V16.6458C19.2708 16.5069 19.2188 16.3854 19.1146 16.2813C19.0104 16.1771 18.8889 16.125 18.75 16.125C18.6111 16.125 18.4896 16.1771 18.3854 16.2813C18.2813 16.3854 18.2292 16.5069 18.2292 16.6458V18.7292H16.1458C16.0069 18.7292 15.8854 18.7813 15.7813 18.8854C15.6771 18.9896 15.625 19.1111 15.625 19.25C15.625 19.3889 15.6771 19.5104 15.7813 19.6146C15.8854 19.7188 16.0069 19.7708 16.1458 19.7708H18.2292ZM18.75 24.4583C17.309 24.4583 16.0806 23.9503 15.0646 22.9344C14.0486 21.9184 13.541 20.6903 13.5417 19.25C13.5417 17.809 14.0497 16.5806 15.0656 15.5646C16.0816 14.5486 17.3097 14.041 18.75 14.0417C20.191 14.0417 21.4194 14.5497 22.4354 15.5656C23.4514 16.5816 23.959 17.8097 23.9583 19.25C23.9583 20.691 23.4503 21.9194 22.4344 22.9354C21.4184 23.9514 20.1903 24.459 18.75 24.4583ZM8.33333 9.875H16.6667C16.9618 9.875 17.2094 9.775 17.4094 9.575C17.6094 9.375 17.709 9.12778 17.7083 8.83333C17.7083 8.5382 17.6083 8.29063 17.4083 8.09063C17.2083 7.89063 16.9611 7.79097 16.6667 7.79167H8.33333C8.0382 7.79167 7.79063 7.89167 7.59063 8.09167C7.39063 8.29167 7.29097 8.53889 7.29167 8.83333C7.29167 9.12847 7.39167 9.37604 7.59167 9.57604C7.79167 9.77604 8.03889 9.8757 8.33333 9.875ZM12.1615 22.375H5.20833C4.63542 22.375 4.14479 22.1708 3.73646 21.7625C3.32813 21.3542 3.12431 20.8639 3.125 20.2917V5.70833C3.125 5.13542 3.32917 4.64479 3.7375 4.23646C4.14584 3.82813 4.63611 3.62431 5.20833 3.625H19.7917C20.3646 3.625 20.8552 3.82917 21.2635 4.2375C21.6719 4.64584 21.8757 5.13611 21.875 5.70833V12.6875C21.3715 12.4444 20.8635 12.2622 20.351 12.1406C19.8385 12.0191 19.3049 11.9583 18.75 11.9583C18.559 11.9583 18.3809 11.9625 18.2156 11.9708C18.0503 11.9792 17.8813 12.001 17.7083 12.0365C17.5521 12.0017 17.3785 11.9802 17.1875 11.9719C16.9965 11.9635 16.8229 11.959 16.6667 11.9583H8.33333C8.0382 11.9583 7.79063 12.0583 7.59063 12.2583C7.39063 12.4583 7.29097 12.7056 7.29167 13C7.29167 13.2951 7.39167 13.5427 7.59167 13.7427C7.79167 13.9427 8.03889 14.0424 8.33333 14.0417H13.6719C13.3594 14.3368 13.0771 14.658 12.825 15.0052C12.5729 15.3524 12.3517 15.7257 12.1615 16.125H8.33333C8.0382 16.125 7.79063 16.225 7.59063 16.425C7.39063 16.625 7.29097 16.8722 7.29167 17.1667C7.29167 17.4618 7.39167 17.7094 7.59167 17.9094C7.79167 18.1094 8.03889 18.209 8.33333 18.2083H11.5365C11.5017 18.3819 11.4799 18.5514 11.4708 18.7167C11.4618 18.8819 11.4576 19.0597 11.4583 19.25C11.4583 19.8229 11.5104 20.3569 11.6146 20.8521C11.7188 21.3472 11.901 21.8549 12.1615 22.375Z" fill="black"/>
</g>
</svg>
