<svg width="25" height="26" viewBox="0 0 25 26" fill="none" xmlns="http://www.w3.org/2000/svg">
<g id="grommet-icons:download-option" clip-path="url(#clip0_331_9902)">
<path id="Vector" fill-rule="evenodd" clip-rule="evenodd" d="M12.5 25.5C5.59687 25.5 0 19.9031 0 13C0 6.09687 5.59687 0.5 12.5 0.5C19.4031 0.5 25 6.09687 25 13C25 19.9031 19.4031 25.5 12.5 25.5ZM2.08333 13C2.08333 18.7531 6.74687 23.4167 12.5 23.4167C18.2531 23.4167 22.9167 18.7531 22.9167 13C22.9167 7.24687 18.2531 2.58333 12.5 2.58333C6.74687 2.58333 2.08333 7.24687 2.08333 13ZM16.9719 12.2635L13.5417 15.6937V6.75H11.4583V15.6937L8.02812 12.2635L6.55521 13.7365L11.7635 18.9448L12.5 19.6812L13.2365 18.9448L18.4448 13.7365L16.9719 12.2635Z" fill="black"/>
</g>
<defs>
<clipPath id="clip0_331_9902">
<rect width="25" height="25" fill="white" transform="translate(0 0.5)"/>
</clipPath>
</defs>
</svg>
