<svg width="22" height="22" viewBox="0 0 22 22" fill="none" xmlns="http://www.w3.org/2000/svg">
<path d="M21.58 4.54697L17.6667 0.613639C17.4081 0.356349 17.0582 0.211914 16.6934 0.211914C16.3286 0.211914 15.9786 0.356349 15.72 0.613639L1.8467 14.467L0.580038 19.9336C0.536342 20.1335 0.53784 20.3406 0.584422 20.5397C0.631004 20.7389 0.721494 20.9252 0.84928 21.0849C0.977067 21.2446 1.13892 21.3738 1.32302 21.463C1.50712 21.5522 1.70882 21.5991 1.91337 21.6003C2.00868 21.6099 2.10473 21.6099 2.20004 21.6003L7.72671 20.3336L21.58 6.49364C21.8373 6.23504 21.9818 5.88509 21.9818 5.52031C21.9818 5.15552 21.8373 4.80557 21.58 4.54697ZM7.06004 19.1336L1.88004 20.2203L3.06004 15.1403L13.44 4.80031L17.44 8.80031L7.06004 19.1336ZM18.3334 7.83364L14.3334 3.83364L16.6534 1.52697L20.5867 5.52697L18.3334 7.83364Z" fill="black"/>
</svg>
