<svg width="22" height="22" viewBox="0 0 22 22" fill="none" xmlns="http://www.w3.org/2000/svg">
<path d="M21.58 4.54697L17.6666 0.613639C17.408 0.356349 17.0581 0.211914 16.6933 0.211914C16.3285 0.211914 15.9786 0.356349 15.72 0.613639L1.84664 14.467L0.579977 19.9336C0.536281 20.1335 0.537779 20.3406 0.584361 20.5397C0.630943 20.7389 0.721433 20.9252 0.849219 21.0849C0.977006 21.2446 1.13886 21.3738 1.32296 21.463C1.50706 21.5522 1.70876 21.5991 1.91331 21.6003C2.00862 21.6099 2.10466 21.6099 2.19998 21.6003L7.72664 20.3336L21.58 6.49364C21.8373 6.23504 21.9817 5.88509 21.9817 5.52031C21.9817 5.15552 21.8373 4.80557 21.58 4.54697ZM7.05998 19.1336L1.87998 20.2203L3.05998 15.1403L13.44 4.80031L17.44 8.80031L7.05998 19.1336ZM18.3333 7.83364L14.3333 3.83364L16.6533 1.52697L20.5866 5.52697L18.3333 7.83364Z" fill="black"/>
</svg>
