<svg width="24" height="24" viewBox="0 0 24 24" fill="none" xmlns="http://www.w3.org/2000/svg">
<g id="clarity:edit-line" clip-path="url(#clip0_261_584)">
<path id="Vector" d="M22.58 5.546L18.6667 1.61266C18.4081 1.35537 18.0582 1.21094 17.6934 1.21094C17.3286 1.21094 16.9786 1.35537 16.72 1.61266L2.8467 15.466L1.58004 20.9327C1.53634 21.1325 1.53784 21.3396 1.58442 21.5388C1.631 21.7379 1.72149 21.9242 1.84928 22.0839C1.97707 22.2437 2.13892 22.3728 2.32302 22.462C2.50712 22.5512 2.70882 22.5981 2.91337 22.5993C3.00868 22.609 3.10473 22.609 3.20004 22.5993L8.72671 21.3327L22.58 7.49266C22.8373 7.23407 22.9818 6.88412 22.9818 6.51933C22.9818 6.15454 22.8373 5.80459 22.58 5.546ZM8.06004 20.1327L2.88004 21.2193L4.06004 16.1393L14.44 5.79933L18.44 9.79933L8.06004 20.1327ZM19.3334 8.83266L15.3334 4.83266L17.6534 2.526L21.5867 6.526L19.3334 8.83266Z" fill="black"/>
</g>
<defs>
<clipPath id="clip0_261_584">
<rect width="24" height="24" fill="white"/>
</clipPath>
</defs>
</svg>
