<svg width="25" height="26" viewBox="0 0 25 26" fill="none" xmlns="http://www.w3.org/2000/svg">
<g id="mdi:eye">
<path id="Vector" d="M12.5013 9.875C11.6725 9.875 10.8776 10.2042 10.2916 10.7903C9.70554 11.3763 9.3763 12.1712 9.3763 13C9.3763 13.8288 9.70554 14.6237 10.2916 15.2097C10.8776 15.7958 11.6725 16.125 12.5013 16.125C13.3301 16.125 14.125 15.7958 14.711 15.2097C15.2971 14.6237 15.6263 13.8288 15.6263 13C15.6263 12.1712 15.2971 11.3763 14.711 10.7903C14.125 10.2042 13.3301 9.875 12.5013 9.875ZM12.5013 18.2083C11.12 18.2083 9.79521 17.6596 8.81845 16.6828C7.8417 15.7061 7.29297 14.3813 7.29297 13C7.29297 11.6187 7.8417 10.2939 8.81845 9.31715C9.79521 8.3404 11.12 7.79167 12.5013 7.79167C13.8826 7.79167 15.2074 8.3404 16.1841 9.31715C17.1609 10.2939 17.7096 11.6187 17.7096 13C17.7096 14.3813 17.1609 15.7061 16.1841 16.6828C15.2074 17.6596 13.8826 18.2083 12.5013 18.2083ZM12.5013 5.1875C7.29297 5.1875 2.84505 8.42708 1.04297 13C2.84505 17.5729 7.29297 20.8125 12.5013 20.8125C17.7096 20.8125 22.1576 17.5729 23.9596 13C22.1576 8.42708 17.7096 5.1875 12.5013 5.1875Z" fill="black"/>
</g>
</svg>
