<svg width="25" height="26" viewBox="0 0 25 26" fill="none" xmlns="http://www.w3.org/2000/svg">
<path d="M13.542 3.625C11.0556 3.625 8.67102 4.61272 6.91287 6.37087C5.15471 8.12903 4.16699 10.5136 4.16699 13H1.04199L5.20866 17.1667L9.37533 13H6.25033C6.25033 8.97917 9.52116 5.70833 13.542 5.70833C17.5628 5.70833 20.8337 8.97917 20.8337 13C20.8337 17.0208 17.5628 20.2917 13.542 20.2917C11.5628 20.2917 9.77116 19.5 8.45866 18.2188L6.97949 19.6875C8.7296 21.4097 11.0866 22.375 13.542 22.375C16.0284 22.375 18.413 21.3873 20.1711 19.6291C21.9293 17.871 22.917 15.4864 22.917 13C22.917 10.5136 21.9293 8.12903 20.1711 6.37087C18.413 4.61272 16.0284 3.625 13.542 3.625ZM15.6253 11.9583V10.9167C15.6253 9.77083 14.6878 8.83333 13.542 8.83333C12.3962 8.83333 11.4587 9.77083 11.4587 10.9167V11.9583C10.8857 11.9583 10.417 12.4271 10.417 13V16.125C10.417 16.6979 10.8857 17.1667 11.4587 17.1667H15.6253C16.1982 17.1667 16.667 16.6979 16.667 16.125V13C16.667 12.4271 16.1982 11.9583 15.6253 11.9583ZM14.5837 11.9583H12.5003V10.9167C12.5003 10.3437 12.9691 9.875 13.542 9.875C14.1149 9.875 14.5837 10.3437 14.5837 10.9167V11.9583Z" fill="black"/>
</svg>
