<svg width="25" height="26" viewBox="0 0 25 26" fill="none" xmlns="http://www.w3.org/2000/svg">
<path d="M19.9374 13.9792C19.9791 13.6667 19.9999 13.3438 19.9999 13C19.9999 12.6667 19.9791 12.3333 19.927 12.0208L22.0416 10.375C22.1327 10.2999 22.195 10.1955 22.2177 10.0797C22.2405 9.96379 22.2225 9.84361 22.1666 9.73959L20.1666 6.28125C20.1077 6.17663 20.0137 6.09623 19.9012 6.05428C19.7887 6.01234 19.665 6.01156 19.552 6.05209L17.0624 7.05209C16.5416 6.65625 15.9895 6.32292 15.3749 6.07292L14.9999 3.42709C14.9815 3.30785 14.9209 3.19918 14.8291 3.12081C14.7374 3.04245 14.6206 2.99958 14.4999 3H10.4999C10.2499 3 10.052 3.17709 10.0103 3.42709L9.63532 6.07292C9.02073 6.32292 8.45823 6.66667 7.94782 7.05209L5.45823 6.05209C5.22907 5.96875 4.96865 6.05209 4.84365 6.28125L2.85407 9.73959C2.72907 9.95834 2.77073 10.2292 2.97907 10.375L5.09365 12.0208C5.04157 12.3333 4.9999 12.6771 4.9999 13C4.9999 13.3229 5.02073 13.6667 5.07282 13.9792L2.95823 15.625C2.86711 15.7001 2.80485 15.8045 2.78206 15.9203C2.75927 16.0362 2.77735 16.1564 2.83323 16.2604L4.83323 19.7188C4.95823 19.9479 5.21865 20.0208 5.44782 19.9479L7.9374 18.9479C8.45823 19.3438 9.01032 19.6771 9.6249 19.9271L9.9999 22.5729C10.052 22.8229 10.2499 23 10.4999 23H14.4999C14.7499 23 14.9582 22.8229 14.9895 22.5729L15.3645 19.9271C15.9791 19.6771 16.5416 19.3438 17.052 18.9479L19.5416 19.9479C19.7707 20.0313 20.0312 19.9479 20.1562 19.7188L22.1562 16.2604C22.2812 16.0313 22.2291 15.7708 22.0312 15.625L19.9374 13.9792ZM12.4999 16.75C10.4374 16.75 8.7499 15.0625 8.7499 13C8.7499 10.9375 10.4374 9.25 12.4999 9.25C14.5624 9.25 16.2499 10.9375 16.2499 13C16.2499 15.0625 14.5624 16.75 12.4999 16.75Z" fill="black"/>
</svg>
