<svg width="25" height="26" viewBox="0 0 25 26" fill="none" xmlns="http://www.w3.org/2000/svg">
<g id="tabler:mail-filled" clip-path="url(#clip0_331_5636)">
<g id="Group">
<path id="Vector" d="M22.9193 8.34888V18.2083C22.9193 19.0053 22.6148 19.7723 22.0679 20.3523C21.5211 20.9322 20.7733 21.2813 19.9776 21.328L19.7943 21.3333H5.21094C4.41384 21.3333 3.64686 21.0287 3.06692 20.4819C2.48697 19.9351 2.13791 19.1873 2.09115 18.3916L2.08594 18.2083V8.34888L11.9245 14.9083L12.0453 14.977C12.1877 15.0466 12.3441 15.0827 12.5026 15.0827C12.6611 15.0827 12.8175 15.0466 12.9599 14.977L13.0807 14.9083L22.9193 8.34888Z" fill="black"/>
<path id="Vector_2" d="M19.7917 4.66675C20.9167 4.66675 21.9031 5.2605 22.4531 6.15321L12.5 12.7886L2.54688 6.15321C2.80805 5.72901 3.16689 5.37342 3.59345 5.1161C4.02 4.85879 4.50191 4.70722 4.99896 4.67404L5.20833 4.66675H19.7917Z" fill="black"/>
</g>
</g>
<defs>
<clipPath id="clip0_331_5636">
<rect width="25" height="25" fill="white" transform="translate(0 0.5)"/>
</clipPath>
</defs>
</svg>
