<svg width="25" height="26" viewBox="0 0 25 26" fill="none" xmlns="http://www.w3.org/2000/svg">
<g id="Group">
<path id="Vector" d="M22.9154 8.34888V18.2083C22.9154 19.0053 22.6109 19.7723 22.064 20.3523C21.5172 20.9322 20.7694 21.2813 19.9737 21.328L19.7904 21.3333H5.20703C4.40994 21.3333 3.64295 21.0287 3.06301 20.4819C2.48307 19.9351 2.134 19.1873 2.08724 18.3916L2.08203 18.2083V8.34888L11.9206 14.9083L12.0414 14.977C12.1838 15.0466 12.3402 15.0827 12.4987 15.0827C12.6572 15.0827 12.8136 15.0466 12.956 14.977L13.0768 14.9083L22.9154 8.34888Z" fill="black"/>
<path id="Vector_2" d="M19.7917 4.66675C20.9167 4.66675 21.9031 5.2605 22.4531 6.15321L12.5 12.7886L2.54688 6.15321C2.80805 5.72901 3.16689 5.37342 3.59345 5.1161C4.02 4.85879 4.50191 4.70722 4.99896 4.67404L5.20833 4.66675H19.7917Z" fill="black"/>
</g>
</svg>
