<svg width="30" height="32" viewBox="0 0 30 32" fill="none" xmlns="http://www.w3.org/2000/svg">
<path d="M12 0.5H18C18.7956 0.5 19.5587 0.81607 20.1213 1.37868C20.6839 1.94129 21 2.70435 21 3.5V6.5H27C27.7956 6.5 28.5587 6.81607 29.1213 7.37868C29.6839 7.94129 30 8.70435 30 9.5V17.795C28.3527 16.3143 26.215 15.4966 24 15.5C22.4206 15.5013 20.8692 15.9178 19.5016 16.7079C18.1339 17.4979 16.9981 18.6337 16.2079 20.0012C15.4178 21.3688 15.0011 22.9201 14.9997 24.4996C14.9983 26.079 15.4123 27.631 16.2 29H3C2.20435 29 1.44129 28.6839 0.87868 28.1213C0.31607 27.5587 0 26.7956 0 26V9.5C0 7.835 1.335 6.5 3 6.5H9V3.5C9 1.835 10.335 0.5 12 0.5ZM18 6.5V3.5H12V6.5H18ZM25.5 25.25V23H19.5V20H25.5V17.75L30 21.5L25.5 25.25ZM22.5 26H28.5V29H22.5V31.25L18 27.5L22.5 23.75V26Z" fill="white"/>
</svg>
