<svg width="36" height="37" viewBox="0 0 36 37" fill="none" xmlns="http://www.w3.org/2000/svg">
<g clip-path="url(#clip0_1_78)">
<path fill-rule="evenodd" clip-rule="evenodd" d="M21.2477 5.37501C19.8047 2.87451 16.1957 2.87451 14.7527 5.37501L12.6572 9.00501C12.3635 9.52151 12.2861 10.1332 12.4417 10.7066C12.5974 11.28 12.9736 11.7685 13.4881 12.0656C14.0027 12.3627 14.6138 12.4442 15.1882 12.2923C15.7626 12.1405 16.2537 11.7676 16.5542 11.255L18.0002 8.75001L21.3302 14.519C20.8046 14.569 20.3133 14.8022 19.9424 15.1778C19.5714 15.5535 19.3443 16.0476 19.3009 16.5737C19.2574 17.0999 19.4004 17.6246 19.7047 18.056C20.0091 18.4874 20.4554 18.798 20.9657 18.9335L25.3127 20.0975C25.6386 20.1872 25.9808 20.2013 26.313 20.1386C26.6452 20.076 26.9588 19.9383 27.2297 19.736C27.6407 19.433 27.9317 19.016 28.0697 18.506L29.2337 14.1605C29.3705 13.6511 29.3241 13.1098 29.1024 12.6312C28.8808 12.1525 28.498 11.767 28.021 11.5418C27.544 11.3167 27.003 11.2664 26.4926 11.3996C25.9822 11.5327 25.5349 11.841 25.2287 12.2705L21.2477 5.37501ZM3.06167 25.625L7.04117 18.731C6.5156 18.681 6.02434 18.4478 5.65336 18.0722C5.28238 17.6965 5.0553 17.2024 5.01185 16.6763C4.96841 16.1501 5.11137 15.6254 5.41572 15.194C5.72006 14.7627 6.16641 14.452 6.67667 14.3165L11.0237 13.1525C11.5999 12.9993 12.2133 13.0806 12.7297 13.3786C13.2461 13.6766 13.6235 14.167 13.7792 14.7425L14.9447 19.091C15.0815 19.6004 15.0351 20.1417 14.8134 20.6204C14.5918 21.099 14.209 21.4846 13.732 21.7097C13.255 21.9348 12.714 21.9851 12.2036 21.852C11.6932 21.7188 11.2459 21.4105 10.9397 20.981L7.60817 26.75H10.5002C11.0969 26.75 11.6692 26.9871 12.0912 27.409C12.5131 27.831 12.7502 28.4033 12.7502 29C12.7502 29.5967 12.5131 30.169 12.0912 30.591C11.6692 31.013 11.0969 31.25 10.5002 31.25H6.30917C3.42167 31.25 1.61867 28.1255 3.06167 25.625ZM30.8432 21.995C30.5427 21.4824 30.0516 21.1095 29.4772 20.9577C28.9028 20.8058 28.2917 20.8873 27.7771 21.1844C27.2626 21.4815 26.8864 21.97 26.7307 22.5434C26.5751 23.1168 26.6525 23.7285 26.9462 24.245L28.3922 26.75H21.7322C21.9515 26.2699 21.9951 25.728 21.8553 25.219C21.7154 24.71 21.4011 24.2664 20.9673 23.9657C20.5334 23.665 20.0077 23.5265 19.482 23.5742C18.9564 23.622 18.4642 23.8531 18.0917 24.227L14.9207 27.398C14.5067 27.806 14.2502 28.373 14.2502 29C14.2502 29.618 14.4902 30.179 14.9207 30.6035L18.0917 33.773C18.4644 34.1459 18.9563 34.376 19.4814 34.4232C20.0066 34.4704 20.5316 34.3317 20.9649 34.0313C21.3982 33.7309 21.7122 33.2879 21.8521 32.7795C21.9921 32.2712 21.9491 31.7299 21.7307 31.25H29.6912C32.5787 31.25 34.3832 28.1255 32.9387 25.625L30.8432 21.995Z" fill="white"/>
</g>
<defs>
<clipPath id="clip0_1_78">
<rect width="36" height="36" fill="white" transform="translate(0 0.5)"/>
</clipPath>
</defs>
</svg>
