<svg width="36" height="37" viewBox="0 0 36 37" fill="none" xmlns="http://www.w3.org/2000/svg">
<g id="streamline:money-cash-coins-stack-accounting-billing-payment-stack-cash-coins-currency-money-finance" clip-path="url(#clip0_255_248)">
<g id="Group">
<path id="Vector" d="M23.1417 19.7857C29.5325 19.7857 34.7132 17.4832 34.7132 14.6429C34.7132 11.8025 29.5325 9.5 23.1417 9.5C16.751 9.5 11.5703 11.8025 11.5703 14.6429C11.5703 17.4832 16.751 19.7857 23.1417 19.7857Z" stroke="black" stroke-width="2.85714" stroke-linecap="round" stroke-linejoin="round"/>
<path id="Vector_2" d="M11.5703 14.6431V30.0716C11.5703 32.9002 16.7132 35.2145 23.1417 35.2145C29.5703 35.2145 34.7132 32.9002 34.7132 30.0716V14.6431" stroke="black" stroke-width="2.85714" stroke-linecap="round" stroke-linejoin="round"/>
<path id="Vector_3" d="M34.7137 22.3572C34.7137 25.1858 29.5709 27.5 23.1423 27.5C16.7137 27.5 11.5709 25.1858 11.5709 22.3572M22.8852 4.35718C19.8804 2.50286 16.3829 1.60605 12.8566 1.78575C6.45373 1.78575 1.28516 4.10004 1.28516 6.92861C1.28516 8.44575 2.77658 9.80861 5.1423 10.7858" stroke="black" stroke-width="2.85714" stroke-linecap="round" stroke-linejoin="round"/>
<path id="Vector_4" d="M5.1423 26.2144C2.77658 25.2373 1.28516 23.8744 1.28516 22.3573V6.92871" stroke="black" stroke-width="2.85714" stroke-linecap="round" stroke-linejoin="round"/>
<path id="Vector_5" d="M5.1423 18.5002C2.77658 17.5231 1.28516 16.1602 1.28516 14.6431" stroke="black" stroke-width="2.85714" stroke-linecap="round" stroke-linejoin="round"/>
</g>
</g>
<defs>
<clipPath id="clip0_255_248">
<rect width="36" height="36" fill="white" transform="translate(0 0.5)"/>
</clipPath>
</defs>
</svg>
