<svg width="36" height="37" viewBox="0 0 36 37" fill="none" xmlns="http://www.w3.org/2000/svg">
<g id="mingcute:exchange-euro-line" clip-path="url(#clip0_255_242)">
<g id="Group">
<path id="Vector" fill-rule="evenodd" clip-rule="evenodd" d="M5.09855 14.2639C4.7366 14.0991 4.4549 13.7974 4.31539 13.425C4.17587 13.0525 4.18996 12.64 4.35455 12.2779C7.33505 5.72292 14.6986 2.08992 21.8851 4.01442C25.0556 4.8636 27.8602 6.72909 29.8689 9.32494C31.8776 11.9208 32.9796 15.1037 33.0061 18.3859C33.0166 19.7404 31.5136 20.4889 30.4366 19.7629L26.4196 17.0569C24.9106 16.0399 25.9186 13.6864 27.6946 14.0764L29.2906 14.4274C28.4801 12.1851 27.0202 10.235 25.0971 8.82574C23.1739 7.41645 20.8746 6.61182 18.4924 6.51447C16.1101 6.41711 13.7529 7.03143 11.7211 8.2791C9.68939 9.52677 8.07526 11.3513 7.08455 13.5199C6.91978 13.8819 6.61801 14.1636 6.24559 14.3031C5.87317 14.4426 5.46059 14.4285 5.09855 14.2639ZM30.9076 22.7434C31.2698 22.9079 31.5518 23.2096 31.6916 23.582C31.8314 23.9545 31.8176 24.3672 31.6531 24.7294C28.6711 31.2844 21.3076 34.9189 14.1211 32.9929C10.9504 32.1434 8.14578 30.2777 6.13707 27.6816C4.12835 25.0855 3.02638 21.9023 3.00005 18.6199C2.98955 17.2654 4.49255 16.5169 5.56955 17.2429L9.58655 19.9489C11.0956 20.9659 10.0876 23.3194 8.31155 22.9294L6.71556 22.5784C7.526 24.8207 8.98587 26.7708 10.909 28.1801C12.8322 29.5894 15.1315 30.394 17.5137 30.4914C19.896 30.5887 22.2533 29.9744 24.285 28.7267C26.3167 27.4791 27.9308 25.6546 28.9216 23.4859C29.0863 23.124 29.3881 22.8423 29.7605 22.7028C30.1329 22.5632 30.5455 22.5773 30.9076 22.7419V22.7434ZM18.7951 13.2499C17.3101 13.2499 15.6571 14.6404 15.1531 16.9999H19.5001C19.8979 16.9999 20.2794 17.158 20.5607 17.4393C20.842 17.7206 21.0001 18.1021 21.0001 18.4999C21.0001 18.8977 20.842 19.2793 20.5607 19.5606C20.2794 19.8419 19.8979 19.9999 19.5001 19.9999H15.1531C15.6556 22.3594 17.3101 23.7499 18.7951 23.7499C19.6951 23.7499 20.5996 23.2939 21.3301 22.3849C21.4507 22.2243 21.6025 22.0895 21.7762 21.9886C21.95 21.8878 22.1423 21.8228 22.3416 21.7977C22.5409 21.7725 22.7433 21.7877 22.9367 21.8422C23.1301 21.8968 23.3105 21.9897 23.4673 22.1153C23.6241 22.2409 23.7541 22.3968 23.8495 22.5736C23.9449 22.7505 24.0038 22.9447 24.0227 23.1447C24.0416 23.3447 24.0201 23.5465 23.9596 23.7381C23.899 23.9297 23.8005 24.1071 23.6701 24.2599C22.4896 25.7344 20.7796 26.7499 18.7951 26.7499C15.2131 26.7499 12.6751 23.6119 12.1156 19.9999H12.0001C11.6022 19.9999 11.2207 19.8419 10.9394 19.5606C10.6581 19.2793 10.5001 18.8977 10.5001 18.4999C10.5001 18.1021 10.6581 17.7206 10.9394 17.4393C11.2207 17.158 11.6022 16.9999 12.0001 16.9999H12.1156C12.6736 13.3879 15.2131 10.2499 18.7951 10.2499C20.7796 10.2499 22.4896 11.2654 23.6701 12.7399C23.9041 13.0515 24.0077 13.442 23.959 13.8286C23.9102 14.2153 23.7128 14.5678 23.4087 14.8114C23.1046 15.0551 22.7176 15.1709 22.3296 15.1342C21.9416 15.0975 21.5831 14.9113 21.3301 14.6149C20.5996 13.7059 19.6951 13.2499 18.7951 13.2499Z" fill="black"/>
</g>
</g>
<defs>
<clipPath id="clip0_255_242">
<rect width="36" height="36" fill="white" transform="translate(0 0.5)"/>
</clipPath>
</defs>
</svg>
