<svg xmlns="http://www.w3.org/2000/svg" width="37" height="38" viewBox="0 0 37 38" fill="none">
  <path d="M18.5019 31.5799C11.5459 31.5799 5.92188 25.9559 5.92188 18.9999C5.92188 12.0439 11.5459 6.41992 18.5019 6.41992C25.4579 6.41992 31.0819 12.0439 31.0819 18.9999C31.0819 25.9559 25.4579 31.5799 18.5019 31.5799ZM18.5019 7.89992C12.3599 7.89992 7.40188 12.8579 7.40188 18.9999C7.40188 25.1419 12.3599 30.0999 18.5019 30.0999C24.6439 30.0999 29.6019 25.1419 29.6019 18.9999C29.6019 12.8579 24.6439 7.89992 18.5019 7.89992Z" fill="white"/>
  <path d="M18.2782 26.1778L17.2422 25.1418L23.3842 18.9998L17.2422 12.8578L18.2782 11.8218L25.4562 18.9998L18.2782 26.1778Z" fill="white"/>
  <path d="M11.8398 18.2598H24.4198V19.7398H11.8398V18.2598Z" fill="white"/>
</svg>