<svg width="36" height="37" viewBox="0 0 36 37" fill="none" xmlns="http://www.w3.org/2000/svg">
<path d="M3.825 18.275C3.94319 18.3636 4.07768 18.4281 4.2208 18.4648C4.36391 18.5014 4.51285 18.5096 4.6591 18.4887C4.80535 18.4678 4.94606 18.4183 5.07318 18.343C5.2003 18.2677 5.31136 18.1682 5.4 18.05C6.08114 17.1418 6.96437 16.4047 7.97975 15.897C8.99513 15.3893 10.1148 15.125 11.25 15.125C12.3852 15.125 13.5049 15.3893 14.5202 15.897C15.5356 16.4047 16.4189 17.1418 17.1 18.05C17.2792 18.2884 17.5458 18.446 17.8412 18.4879C18.1366 18.5298 18.4365 18.4527 18.675 18.2736C18.76 18.2103 18.8354 18.135 18.8986 18.05C19.5797 17.1418 20.463 16.4047 21.4783 15.897C22.4937 15.3893 23.6134 15.125 24.7486 15.125C25.8838 15.125 27.0035 15.3893 28.0188 15.897C29.0342 16.4047 29.9175 17.1418 30.5986 18.05C30.7778 18.2887 31.0445 18.4464 31.34 18.4885C31.6355 18.5305 31.9356 18.4535 32.1743 18.2743C32.413 18.0951 32.5707 17.8284 32.6128 17.5329C32.6548 17.2374 32.5778 16.9373 32.3986 16.6986C31.4028 15.3636 30.0749 14.3125 28.5469 13.6498C29.3846 12.885 29.9715 11.8848 30.2305 10.7805C30.4896 9.67617 30.4088 8.51933 29.9986 7.46178C29.5885 6.40422 28.8682 5.49538 27.9322 4.85452C26.9963 4.21366 25.8885 3.87073 24.7542 3.87073C23.6199 3.87073 22.5121 4.21366 21.5762 4.85452C20.6403 5.49538 19.92 6.40422 19.5098 7.46178C19.0997 8.51933 19.0188 9.67617 19.2779 10.7805C19.537 11.8848 20.1239 12.885 20.9616 13.6498C19.8583 14.1269 18.856 14.8098 18.0084 15.6622C17.1609 14.8098 16.1586 14.1269 15.0553 13.6498C15.893 12.885 16.4799 11.8848 16.739 10.7805C16.998 9.67617 16.9172 8.51933 16.5071 7.46178C16.0969 6.40422 15.3766 5.49538 14.4407 4.85452C13.5048 4.21366 12.397 3.87073 11.2627 3.87073C10.1284 3.87073 9.02055 4.21366 8.08463 4.85452C7.14872 5.49538 6.42842 6.40422 6.01826 7.46178C5.60811 8.51933 5.52727 9.67617 5.78634 10.7805C6.04542 11.8848 6.63231 12.885 7.47 13.6498C5.93529 14.3103 4.60083 15.3621 3.6 16.7C3.51136 16.8182 3.44686 16.9526 3.4102 17.0958C3.37353 17.2389 3.36541 17.3878 3.38631 17.5341C3.4072 17.6803 3.4567 17.821 3.53197 17.9481C3.60724 18.0753 3.70681 18.1863 3.825 18.275ZM24.75 6.12496C25.4175 6.12496 26.07 6.3229 26.625 6.69375C27.1801 7.0646 27.6126 7.59171 27.8681 8.20841C28.1235 8.82511 28.1904 9.50371 28.0602 10.1584C27.9299 10.8131 27.6085 11.4144 27.1365 11.8864C26.6645 12.3585 26.0631 12.6799 25.4084 12.8101C24.7537 12.9403 24.0751 12.8735 23.4584 12.6181C22.8417 12.3626 22.3146 11.93 21.9438 11.375C21.5729 10.82 21.375 10.1675 21.375 9.49996C21.375 8.60486 21.7306 7.74641 22.3635 7.11348C22.9964 6.48054 23.8549 6.12496 24.75 6.12496ZM11.25 6.12496C11.9175 6.12496 12.57 6.3229 13.125 6.69375C13.6801 7.0646 14.1126 7.59171 14.3681 8.20841C14.6235 8.82511 14.6904 9.50371 14.5602 10.1584C14.4299 10.8131 14.1085 11.4144 13.6365 11.8864C13.1645 12.3585 12.5631 12.6799 11.9084 12.8101C11.2537 12.9403 10.5751 12.8735 9.95844 12.6181C9.34174 12.3626 8.81464 11.93 8.44379 11.375C8.07294 10.82 7.875 10.1675 7.875 9.49996C7.875 8.60486 8.23058 7.74641 8.86351 7.11348C9.49645 6.48054 10.3549 6.12496 11.25 6.12496ZM28.5469 28.2748C29.3846 27.51 29.9715 26.5098 30.2305 25.4055C30.4896 24.3012 30.4088 23.1443 29.9986 22.0868C29.5885 21.0292 28.8682 20.1204 27.9322 19.4795C26.9963 18.8387 25.8885 18.4957 24.7542 18.4957C23.6199 18.4957 22.5121 18.8387 21.5762 19.4795C20.6403 20.1204 19.92 21.0292 19.5098 22.0868C19.0997 23.1443 19.0188 24.3012 19.2779 25.4055C19.537 26.5098 20.1239 27.51 20.9616 28.2748C19.8583 28.7519 18.856 29.4348 18.0084 30.2872C17.1609 29.4348 16.1586 28.7519 15.0553 28.2748C15.893 27.51 16.4799 26.5098 16.739 25.4055C16.998 24.3012 16.9172 23.1443 16.5071 22.0868C16.0969 21.0292 15.3766 20.1204 14.4407 19.4795C13.5048 18.8387 12.397 18.4957 11.2627 18.4957C10.1284 18.4957 9.02055 18.8387 8.08463 19.4795C7.14872 20.1204 6.42842 21.0292 6.01826 22.0868C5.60811 23.1443 5.52727 24.3012 5.78634 25.4055C6.04542 26.5098 6.63231 27.51 7.47 28.2748C5.93529 28.9353 4.60083 29.9871 3.6 31.325C3.51136 31.4432 3.44686 31.5776 3.4102 31.7208C3.37353 31.8639 3.36541 32.0128 3.38631 32.1591C3.4072 32.3053 3.4567 32.446 3.53197 32.5731C3.60724 32.7003 3.70681 32.8113 3.825 32.9C3.94319 32.9886 4.07768 33.0531 4.2208 33.0898C4.36391 33.1264 4.51285 33.1346 4.6591 33.1137C4.80535 33.0928 4.94606 33.0433 5.07318 32.968C5.2003 32.8927 5.31136 32.7932 5.4 32.675C6.08114 31.7668 6.96437 31.0297 7.97975 30.522C8.99513 30.0143 10.1148 29.75 11.25 29.75C12.3852 29.75 13.5049 30.0143 14.5202 30.522C15.5356 31.0297 16.4189 31.7668 17.1 32.675C17.2792 32.9134 17.5458 33.071 17.8412 33.1129C18.1366 33.1548 18.4365 33.0777 18.675 32.8986C18.76 32.8353 18.8354 32.76 18.8986 32.675C19.5797 31.7668 20.463 31.0297 21.4783 30.522C22.4937 30.0143 23.6134 29.75 24.7486 29.75C25.8838 29.75 27.0035 30.0143 28.0188 30.522C29.0342 31.0297 29.9175 31.7668 30.5986 32.675C30.7778 32.9137 31.0445 33.0714 31.34 33.1135C31.6355 33.1555 31.9356 33.0785 32.1743 32.8993C32.413 32.7201 32.5707 32.4534 32.6128 32.1579C32.6548 31.8624 32.5778 31.5623 32.3986 31.3236C31.4028 29.9886 30.0749 28.9375 28.5469 28.2748ZM11.25 20.75C11.9175 20.75 12.57 20.9479 13.125 21.3188C13.6801 21.6896 14.1126 22.2167 14.3681 22.8334C14.6235 23.4501 14.6904 24.1287 14.5602 24.7834C14.4299 25.4381 14.1085 26.0394 13.6365 26.5114C13.1645 26.9835 12.5631 27.3049 11.9084 27.4351C11.2537 27.5653 10.5751 27.4985 9.95844 27.2431C9.34174 26.9876 8.81464 26.555 8.44379 26C8.07294 25.445 7.875 24.7925 7.875 24.125C7.875 23.2299 8.23058 22.3714 8.86351 21.7385C9.49645 21.1055 10.3549 20.75 11.25 20.75ZM24.75 20.75C25.4175 20.75 26.07 20.9479 26.625 21.3188C27.1801 21.6896 27.6126 22.2167 27.8681 22.8334C28.1235 23.4501 28.1904 24.1287 28.0602 24.7834C27.9299 25.4381 27.6085 26.0394 27.1365 26.5114C26.6645 26.9835 26.0631 27.3049 25.4084 27.4351C24.7537 27.5653 24.0751 27.4985 23.4584 27.2431C22.8417 26.9876 22.3146 26.555 21.9438 26C21.5729 25.445 21.375 24.7925 21.375 24.125C21.375 23.2299 21.7306 22.3714 22.3635 21.7385C22.9964 21.1055 23.8549 20.75 24.75 20.75Z" fill="white"/>
</svg>
