<svg width="36" height="37" viewBox="0 0 36 37" fill="none" xmlns="http://www.w3.org/2000/svg">
<g id="gala:settings">
<rect width="36" height="36" transform="translate(0 0.5)" fill="#F45300"/>
<g id="galaSettings0">
<path id="galaSettings1" d="M6.75 2.75H29.25C31.743 2.75 33.75 4.757 33.75 7.25V29.75C33.75 32.243 31.743 34.25 29.25 34.25H6.75C4.257 34.25 2.25 32.243 2.25 29.75V7.25C2.25 4.757 4.257 2.75 6.75 2.75Z" stroke="white" stroke-width="2.75" stroke-linecap="round" stroke-linejoin="round"/>
<path id="galaSettings2" d="M9 9.5H11.25" stroke="white" stroke-width="2.75" stroke-linecap="round" stroke-linejoin="round"/>
<path id="galaSettings3" d="M13.5 11.75C12.9033 11.75 12.331 11.5129 11.909 11.091C11.4871 10.669 11.25 10.0967 11.25 9.5C11.25 8.90326 11.4871 8.33097 11.909 7.90901C12.331 7.48705 12.9033 7.25 13.5 7.25C13.7955 7.25 14.0881 7.3082 14.361 7.42127C14.634 7.53434 14.8821 7.70008 15.091 7.90901C15.2999 8.11794 15.4657 8.36598 15.5787 8.63896C15.6918 8.91194 15.75 9.20453 15.75 9.5C15.75 9.79547 15.6918 10.0881 15.5787 10.361C15.4657 10.634 15.2999 10.8821 15.091 11.091C14.8821 11.2999 14.634 11.4657 14.361 11.5787C14.0881 11.6918 13.7955 11.75 13.5 11.75Z" stroke="white" stroke-width="2.75" stroke-linecap="round" stroke-linejoin="round"/>
<path id="galaSettings4" d="M15.75 9.50006L27 9.5" stroke="white" stroke-width="2.75" stroke-linecap="round" stroke-linejoin="round"/>
<path id="galaSettings5" d="M27 18.5H24.75" stroke="white" stroke-width="2.75" stroke-linecap="round" stroke-linejoin="round"/>
<path id="galaSettings6" d="M22.5 20.75C23.0967 20.75 23.669 20.5129 24.091 20.091C24.5129 19.669 24.75 19.0967 24.75 18.5C24.75 17.9033 24.5129 17.331 24.091 16.909C23.669 16.4871 23.0967 16.25 22.5 16.25C21.9033 16.25 21.331 16.4871 20.909 16.909C20.4871 17.331 20.25 17.9033 20.25 18.5C20.25 19.0967 20.4871 19.669 20.909 20.091C21.331 20.5129 21.9033 20.75 22.5 20.75Z" stroke="white" stroke-width="2.75" stroke-linecap="round" stroke-linejoin="round"/>
<path id="galaSettings7" d="M20.25 18.5001L9 18.5" stroke="white" stroke-width="2.75" stroke-linecap="round" stroke-linejoin="round"/>
<path id="galaSettings8" d="M9 27.5H11.25" stroke="white" stroke-width="2.75" stroke-linecap="round" stroke-linejoin="round"/>
<path id="galaSettings9" d="M13.5 29.75C12.9033 29.75 12.331 29.5129 11.909 29.091C11.4871 28.669 11.25 28.0967 11.25 27.5C11.25 26.9033 11.4871 26.331 11.909 25.909C12.331 25.4871 12.9033 25.25 13.5 25.25C13.7955 25.25 14.0881 25.3082 14.361 25.4213C14.634 25.5343 14.8821 25.7001 15.091 25.909C15.2999 26.1179 15.4657 26.366 15.5787 26.639C15.6918 26.9119 15.75 27.2045 15.75 27.5C15.75 27.7955 15.6918 28.0881 15.5787 28.361C15.4657 28.634 15.2999 28.8821 15.091 29.091C14.8821 29.2999 14.634 29.4657 14.361 29.5787C14.0881 29.6918 13.7955 29.75 13.5 29.75Z" stroke="white" stroke-width="2.75" stroke-linecap="round" stroke-linejoin="round"/>
<path id="galaSettingsa" d="M15.75 27.5001L27 27.5" stroke="white" stroke-width="2.75" stroke-linecap="round" stroke-linejoin="round"/>
</g>
</g>
</svg>
