<svg width="44" height="44" viewBox="0 0 44 44" fill="none" xmlns="http://www.w3.org/2000/svg">
<g id="carbon:cloud-upload">
<path id="Vector" d="M15.125 24.75L17.0637 26.6887L20.625 23.1412V39.875H23.375V23.1412L26.9363 26.6887L28.875 24.75L22 17.875L15.125 24.75Z" fill="#828282"/>
<path id="Vector_2" d="M32.3106 30.25H31.6231V27.5H32.3106C33.9516 27.5657 35.5515 26.9767 36.7583 25.8628C37.9651 24.7488 38.68 23.201 38.7456 21.56C38.8112 19.919 38.2223 18.3191 37.1083 17.1123C35.9944 15.9055 34.4466 15.1907 32.8056 15.125H31.6231L31.4856 13.9975C31.1805 11.6826 30.0444 9.55757 28.2889 8.01817C26.5333 6.47878 24.278 5.63003 21.9431 5.63003C19.6082 5.63003 17.3529 6.47878 15.5973 8.01817C13.8418 9.55757 12.7057 11.6826 12.4006 13.9975L12.3731 15.125H11.1906C9.54957 15.1907 8.00183 15.9055 6.88786 17.1123C5.7739 18.3191 5.18496 19.919 5.2506 21.56C5.31624 23.201 6.03109 24.7488 7.23788 25.8628C8.44468 26.9767 10.0446 27.5657 11.6856 27.5H12.3731V30.25H11.6856C9.48065 30.2361 7.3587 29.4075 5.7277 27.9236C4.0967 26.4398 3.07179 24.4054 2.85003 22.2116C2.62826 20.0178 3.22528 17.8194 4.52632 16.0392C5.82735 14.259 7.74056 13.0225 9.8981 12.5675C10.4917 9.79898 12.0167 7.31773 14.2188 5.53779C16.4208 3.75785 19.1666 2.78687 21.9981 2.78687C24.8296 2.78687 27.5754 3.75785 29.7774 5.53779C31.9795 7.31773 33.5045 9.79898 34.0981 12.5675C36.2556 13.0225 38.1688 14.259 39.4699 16.0392C40.7709 17.8194 41.3679 20.0178 41.1462 22.2116C40.9244 24.4054 39.8995 26.4398 38.2685 27.9236C36.6375 29.4075 34.5155 30.2361 32.3106 30.25Z" fill="#828282"/>
</g>
</svg>
