<svg width="11" height="11" viewBox="0 0 11 11" fill="none" xmlns="http://www.w3.org/2000/svg">
<path id="Vector" d="M9.99715 0.210185C9.80583 0.103729 9.59541 0.0360296 9.37791 0.0109584C9.16041 -0.0141129 8.94011 0.00393581 8.72959 0.0640725C8.51907 0.124209 8.32248 0.225254 8.15104 0.361429C7.9796 0.497604 7.83669 0.666237 7.73048 0.857685L4.63631 6.42602L2.86548 4.65519C2.71173 4.496 2.52783 4.36903 2.32449 4.28168C2.12115 4.19433 1.90245 4.14836 1.68115 4.14643C1.45985 4.14451 1.24038 4.18668 1.03556 4.27048C0.830729 4.35428 0.644643 4.47804 0.488155 4.63453C0.331668 4.79102 0.207912 4.9771 0.124111 5.18193C0.0403095 5.38676 -0.0018601 5.60622 6.29278e-05 5.82752C0.00198595 6.04882 0.0479631 6.26752 0.135311 6.47086C0.22266 6.6742 0.34963 6.85811 0.508814 7.01185L3.84215 10.3452C4.15715 10.661 4.58215 10.8344 5.02048 10.8344L5.25131 10.8177C5.50677 10.782 5.75045 10.6874 5.96316 10.5415C6.17588 10.3956 6.35182 10.2023 6.47715 9.97685L10.6438 2.47685C10.7502 2.28556 10.8178 2.07519 10.8429 1.85775C10.868 1.64031 10.85 1.42006 10.7899 1.20958C10.7299 0.999101 10.629 0.802509 10.4929 0.631032C10.3569 0.459554 10.1884 0.31655 9.99715 0.210185Z" fill="#15612E"/>
</svg>
