<svg width="11" height="11" viewBox="0 0 11 11" fill="none" xmlns="http://www.w3.org/2000/svg">
<path id="Vector" fill-rule="evenodd" clip-rule="evenodd" d="M10.5953 1.19219C10.6601 1.12742 10.7116 1.05051 10.7467 0.965858C10.7818 0.881201 10.7999 0.790455 10.8 0.6988C10.8001 0.607145 10.7821 0.516376 10.747 0.431676C10.712 0.346977 10.6607 0.270004 10.5959 0.205155C10.5311 0.140305 10.4542 0.0888477 10.3696 0.0537208C10.2849 0.0185939 10.1942 0.000485334 10.1025 0.000429001C10.0108 0.000372667 9.92008 0.0183697 9.83538 0.0533925C9.75068 0.0884153 9.67371 0.139778 9.60886 0.204548L5.39991 4.41357L1.19217 0.204548C1.06121 0.073578 0.883576 -1.37999e-09 0.698359 0C0.513143 1.37999e-09 0.335512 0.073578 0.204545 0.204548C0.0735768 0.335518 1.37997e-09 0.513151 0 0.698371C-1.37997e-09 0.88359 0.0735768 1.06122 0.204545 1.19219L4.4135 5.4L0.204545 9.60781C0.139696 9.67266 0.0882552 9.74964 0.0531593 9.83437C0.0180635 9.9191 0 10.0099 0 10.1016C0 10.1933 0.0180635 10.2842 0.0531593 10.3689C0.0882552 10.4536 0.139696 10.5306 0.204545 10.5955C0.335512 10.7264 0.513143 10.8 0.698359 10.8C0.790069 10.8 0.880881 10.7819 0.96561 10.7468C1.05034 10.7117 1.12733 10.6603 1.19217 10.5955L5.39991 6.38643L9.60886 10.5955C9.73983 10.7263 9.9174 10.7997 10.1025 10.7996C10.2876 10.7995 10.4651 10.7258 10.5959 10.5948C10.7267 10.4639 10.8001 10.2863 10.8 10.1012C10.7999 9.91609 10.7262 9.73862 10.5953 9.60781L6.38633 5.4L10.5953 1.19219Z" fill="#F45300"/>
</svg>
