<svg width="25" height="25" viewBox="0 0 25 25" fill="none" xmlns="http://www.w3.org/2000/svg">
<g id="mdi:eye">
<path id="Vector" d="M12.5013 9.375C11.6725 9.375 10.8776 9.70424 10.2916 10.2903C9.70554 10.8763 9.3763 11.6712 9.3763 12.5C9.3763 13.3288 9.70554 14.1237 10.2916 14.7097C10.8776 15.2958 11.6725 15.625 12.5013 15.625C13.3301 15.625 14.125 15.2958 14.711 14.7097C15.2971 14.1237 15.6263 13.3288 15.6263 12.5C15.6263 11.6712 15.2971 10.8763 14.711 10.2903C14.125 9.70424 13.3301 9.375 12.5013 9.375ZM12.5013 17.7083C11.12 17.7083 9.79521 17.1596 8.81845 16.1828C7.8417 15.2061 7.29297 13.8813 7.29297 12.5C7.29297 11.1187 7.8417 9.7939 8.81845 8.81715C9.79521 7.8404 11.12 7.29167 12.5013 7.29167C13.8826 7.29167 15.2074 7.8404 16.1841 8.81715C17.1609 9.7939 17.7096 11.1187 17.7096 12.5C17.7096 13.8813 17.1609 15.2061 16.1841 16.1828C15.2074 17.1596 13.8826 17.7083 12.5013 17.7083ZM12.5013 4.6875C7.29297 4.6875 2.84505 7.92708 1.04297 12.5C2.84505 17.0729 7.29297 20.3125 12.5013 20.3125C17.7096 20.3125 22.1576 17.0729 23.9596 12.5C22.1576 7.92708 17.7096 4.6875 12.5013 4.6875Z" fill="#F45300"/>
</g>
</svg>
